<mxfile host="app.diagrams.net" agent="Mozilla/5.0 (X11; Linux x86_64) AppleWebKit/537.36 (KHTML, like Gecko) Chrome/128.0.0.0 Safari/537.36" version="24.7.6">
  <diagram id="C5RBs43oDa-KdzZeNtuy" name="Page-1">
    <mxGraphModel dx="719" dy="508" grid="1" gridSize="10" guides="1" tooltips="1" connect="1" arrows="1" fold="1" page="1" pageScale="1" pageWidth="827" pageHeight="1169" math="0" shadow="0">
      <root>
        <mxCell id="WIyWlLk6GJQsqaUBKTNV-0" />
        <mxCell id="WIyWlLk6GJQsqaUBKTNV-1" parent="WIyWlLk6GJQsqaUBKTNV-0" />
        <mxCell id="WIyWlLk6GJQsqaUBKTNV-2" value="" style="rounded=0;html=1;jettySize=auto;orthogonalLoop=1;fontSize=11;endArrow=block;endFill=0;endSize=8;strokeWidth=1;shadow=0;labelBackgroundColor=none;edgeStyle=orthogonalEdgeStyle;" parent="WIyWlLk6GJQsqaUBKTNV-1" source="WIyWlLk6GJQsqaUBKTNV-3" edge="1">
          <mxGeometry relative="1" as="geometry">
            <mxPoint x="220" y="170" as="targetPoint" />
          </mxGeometry>
        </mxCell>
        <mxCell id="WIyWlLk6GJQsqaUBKTNV-3" value="/start" style="rounded=1;whiteSpace=wrap;html=1;fontSize=12;glass=0;strokeWidth=1;shadow=0;" parent="WIyWlLk6GJQsqaUBKTNV-1" vertex="1">
          <mxGeometry x="160" y="80" width="120" height="40" as="geometry" />
        </mxCell>
        <mxCell id="M-9jAMKqzMeKZfDXrxpk-5" value="" style="edgeStyle=orthogonalEdgeStyle;rounded=0;orthogonalLoop=1;jettySize=auto;html=1;" edge="1" parent="WIyWlLk6GJQsqaUBKTNV-1" source="M-9jAMKqzMeKZfDXrxpk-3">
          <mxGeometry relative="1" as="geometry">
            <mxPoint x="220" y="260" as="targetPoint" />
          </mxGeometry>
        </mxCell>
        <mxCell id="M-9jAMKqzMeKZfDXrxpk-3" value="Provincia" style="rounded=0;whiteSpace=wrap;html=1;fillColor=#d5e8d4;strokeColor=#82b366;" vertex="1" parent="WIyWlLk6GJQsqaUBKTNV-1">
          <mxGeometry x="160" y="160" width="120" height="60" as="geometry" />
        </mxCell>
        <mxCell id="M-9jAMKqzMeKZfDXrxpk-10" value="" style="edgeStyle=orthogonalEdgeStyle;rounded=0;orthogonalLoop=1;jettySize=auto;html=1;" edge="1" parent="WIyWlLk6GJQsqaUBKTNV-1" source="M-9jAMKqzMeKZfDXrxpk-8" target="M-9jAMKqzMeKZfDXrxpk-9">
          <mxGeometry relative="1" as="geometry" />
        </mxCell>
        <mxCell id="M-9jAMKqzMeKZfDXrxpk-8" value="Localidad" style="rhombus;whiteSpace=wrap;html=1;fillColor=#d5e8d4;strokeColor=#82b366;" vertex="1" parent="WIyWlLk6GJQsqaUBKTNV-1">
          <mxGeometry x="180" y="370" width="80" height="80" as="geometry" />
        </mxCell>
        <mxCell id="M-9jAMKqzMeKZfDXrxpk-9" value="Listar las localidades de esa prov" style="whiteSpace=wrap;html=1;" vertex="1" parent="WIyWlLk6GJQsqaUBKTNV-1">
          <mxGeometry x="320" y="380" width="120" height="60" as="geometry" />
        </mxCell>
        <mxCell id="M-9jAMKqzMeKZfDXrxpk-11" value="NO" style="text;html=1;align=center;verticalAlign=middle;resizable=0;points=[];autosize=1;strokeColor=none;fillColor=none;" vertex="1" parent="WIyWlLk6GJQsqaUBKTNV-1">
          <mxGeometry x="270" y="378" width="40" height="30" as="geometry" />
        </mxCell>
        <mxCell id="M-9jAMKqzMeKZfDXrxpk-26" value="" style="edgeStyle=orthogonalEdgeStyle;rounded=0;orthogonalLoop=1;jettySize=auto;html=1;" edge="1" parent="WIyWlLk6GJQsqaUBKTNV-1" source="M-9jAMKqzMeKZfDXrxpk-14" target="M-9jAMKqzMeKZfDXrxpk-25">
          <mxGeometry relative="1" as="geometry" />
        </mxCell>
        <mxCell id="M-9jAMKqzMeKZfDXrxpk-14" value="SI" style="text;html=1;align=center;verticalAlign=middle;resizable=0;points=[];autosize=1;strokeColor=none;fillColor=none;" vertex="1" parent="WIyWlLk6GJQsqaUBKTNV-1">
          <mxGeometry x="215" y="448" width="30" height="30" as="geometry" />
        </mxCell>
        <mxCell id="M-9jAMKqzMeKZfDXrxpk-16" value="" style="edgeStyle=orthogonalEdgeStyle;rounded=0;orthogonalLoop=1;jettySize=auto;html=1;" edge="1" parent="WIyWlLk6GJQsqaUBKTNV-1" source="M-9jAMKqzMeKZfDXrxpk-15" target="M-9jAMKqzMeKZfDXrxpk-8">
          <mxGeometry relative="1" as="geometry" />
        </mxCell>
        <mxCell id="M-9jAMKqzMeKZfDXrxpk-15" value="Departamento" style="rounded=0;whiteSpace=wrap;html=1;fillColor=#d5e8d4;strokeColor=#82b366;" vertex="1" parent="WIyWlLk6GJQsqaUBKTNV-1">
          <mxGeometry x="160" y="260" width="120" height="60" as="geometry" />
        </mxCell>
        <mxCell id="M-9jAMKqzMeKZfDXrxpk-33" value="" style="edgeStyle=orthogonalEdgeStyle;rounded=0;orthogonalLoop=1;jettySize=auto;html=1;" edge="1" parent="WIyWlLk6GJQsqaUBKTNV-1" source="M-9jAMKqzMeKZfDXrxpk-21">
          <mxGeometry relative="1" as="geometry">
            <mxPoint x="320.05882352941194" y="570" as="targetPoint" />
          </mxGeometry>
        </mxCell>
        <mxCell id="M-9jAMKqzMeKZfDXrxpk-21" value="Elige la + cercana" style="text;html=1;align=center;verticalAlign=middle;resizable=0;points=[];autosize=1;strokeColor=none;fillColor=none;" vertex="1" parent="WIyWlLk6GJQsqaUBKTNV-1">
          <mxGeometry x="370" y="440" width="120" height="30" as="geometry" />
        </mxCell>
        <mxCell id="M-9jAMKqzMeKZfDXrxpk-28" value="" style="edgeStyle=orthogonalEdgeStyle;rounded=0;orthogonalLoop=1;jettySize=auto;html=1;" edge="1" parent="WIyWlLk6GJQsqaUBKTNV-1" source="M-9jAMKqzMeKZfDXrxpk-25" target="M-9jAMKqzMeKZfDXrxpk-27">
          <mxGeometry relative="1" as="geometry" />
        </mxCell>
        <mxCell id="M-9jAMKqzMeKZfDXrxpk-27" value="&amp;nbsp;Asignacion de representante" style="whiteSpace=wrap;html=1;" vertex="1" parent="WIyWlLk6GJQsqaUBKTNV-1">
          <mxGeometry x="250" y="700" width="120" height="60" as="geometry" />
        </mxCell>
        <mxCell id="M-9jAMKqzMeKZfDXrxpk-36" value="" style="edgeStyle=orthogonalEdgeStyle;rounded=0;orthogonalLoop=1;jettySize=auto;html=1;" edge="1" parent="WIyWlLk6GJQsqaUBKTNV-1" source="M-9jAMKqzMeKZfDXrxpk-25" target="M-9jAMKqzMeKZfDXrxpk-35">
          <mxGeometry relative="1" as="geometry" />
        </mxCell>
        <mxCell id="M-9jAMKqzMeKZfDXrxpk-25" value="RTV/DTM" style="rhombus;whiteSpace=wrap;html=1;" vertex="1" parent="WIyWlLk6GJQsqaUBKTNV-1">
          <mxGeometry x="270" y="560" width="80" height="80" as="geometry" />
        </mxCell>
        <mxCell id="M-9jAMKqzMeKZfDXrxpk-34" value="DTM" style="text;html=1;align=center;verticalAlign=middle;resizable=0;points=[];autosize=1;strokeColor=none;fillColor=none;" vertex="1" parent="WIyWlLk6GJQsqaUBKTNV-1">
          <mxGeometry x="305" y="638" width="50" height="30" as="geometry" />
        </mxCell>
        <mxCell id="M-9jAMKqzMeKZfDXrxpk-35" value="Distribuidor + Rep. Ventas" style="whiteSpace=wrap;html=1;" vertex="1" parent="WIyWlLk6GJQsqaUBKTNV-1">
          <mxGeometry x="410" y="570" width="120" height="60" as="geometry" />
        </mxCell>
        <mxCell id="M-9jAMKqzMeKZfDXrxpk-37" value="RTV" style="text;html=1;align=center;verticalAlign=middle;resizable=0;points=[];autosize=1;strokeColor=none;fillColor=none;" vertex="1" parent="WIyWlLk6GJQsqaUBKTNV-1">
          <mxGeometry x="335" y="568" width="50" height="30" as="geometry" />
        </mxCell>
        <mxCell id="M-9jAMKqzMeKZfDXrxpk-38" value="&lt;h1 style=&quot;margin-top: 0px;&quot;&gt;Inputs cliente - (sin abreviar.)&lt;/h1&gt;&lt;p&gt;Provincia/localidad: Como procesamos la respuesta?&amp;nbsp;&lt;br&gt;&lt;br&gt;1. eliminar tildes (ver como)&amp;nbsp;&lt;/p&gt;&lt;p&gt;2. upper_caps&lt;/p&gt;&lt;p&gt;3. trim final spaces (espacios finales)&lt;/p&gt;&lt;p&gt;4.&lt;font style=&quot;font-size: 12px;&quot;&gt; eliminar caracteres que no sean letras y espacios entre palabras.&lt;/font&gt;&lt;/p&gt;&lt;p style=&quot;&quot;&gt;&lt;font style=&quot;font-size: 12px;&quot;&gt;5. Matchear con el dataset y luego filtrar.&amp;nbsp;&lt;/font&gt;&lt;br&gt;&lt;br&gt;&lt;b style=&quot;font-size: 13px;&quot;&gt;Como lo hacemos?&amp;nbsp;&lt;/b&gt;&lt;/p&gt;&lt;p style=&quot;&quot;&gt;&lt;span style=&quot;background-color: initial;&quot;&gt;. Tenemos que hacer una funcion que procese el texto (1,2,3,4)&amp;nbsp; =&amp;gt; Return PROVINCIA O LOCALIDAD.&amp;nbsp;&lt;/span&gt;&lt;/p&gt;&lt;p&gt;. Se almacena el resultado para realizar el filtrado final.&amp;nbsp;&lt;br&gt;&lt;br&gt;&lt;br&gt;&lt;/p&gt;" style="text;html=1;whiteSpace=wrap;overflow=hidden;rounded=0;fillColor=#d5e8d4;strokeColor=#82b366;strokeWidth=2;" vertex="1" parent="WIyWlLk6GJQsqaUBKTNV-1">
          <mxGeometry x="310" y="29" width="430" height="311" as="geometry" />
        </mxCell>
      </root>
    </mxGraphModel>
  </diagram>
</mxfile>
